<svg width="193" height="18" viewBox="0 0 193 18" fill="none" xmlns="http://www.w3.org/2000/svg">
<path d="M9.95264 2.03479H12.4899C13.9195 2.03479 15.24 2.17881 16.4513 2.46686C17.6627 2.74497 18.7158 3.17207 19.6106 3.74816C20.5055 4.31431 21.1985 5.02946 21.6896 5.89359C22.1916 6.75772 22.4425 7.77581 22.4425 8.94785C22.4425 10.1497 22.1916 11.2025 21.6896 12.1064C21.1985 13.0003 20.5055 13.7453 19.6106 14.3412C18.7158 14.9272 17.6627 15.3692 16.4513 15.6672C15.24 15.9553 13.9195 16.0993 12.4899 16.0993H9.95264C8.53395 16.0993 7.21894 15.9553 6.0076 15.6672C4.79626 15.3692 3.74315 14.9272 2.84829 14.3412C1.95342 13.7453 1.25499 13.0003 0.752996 12.1064C0.250999 11.2125 0 10.1696 0 8.97765C0 7.80561 0.250999 6.78255 0.752996 5.90849C1.25499 5.03442 1.95342 4.31431 2.84829 3.74816C3.74315 3.17207 4.79626 2.74497 6.0076 2.46686C7.21894 2.17881 8.53395 2.03479 9.95264 2.03479ZM9.7071 5.22314C8.71402 5.22314 7.84644 5.35227 7.10435 5.61051C6.36227 5.85883 5.78388 6.2611 5.36919 6.81732C4.96541 7.36361 4.75806 8.08372 4.74715 8.97765C4.72532 9.91131 4.92176 10.6712 5.33645 11.2572C5.75114 11.8333 6.33499 12.2554 7.08798 12.5236C7.84098 12.7818 8.71402 12.9109 9.7071 12.9109H12.7682C13.7722 12.9109 14.6452 12.7769 15.3873 12.5087C16.1294 12.2405 16.7023 11.8184 17.1061 11.2423C17.5099 10.6563 17.7118 9.89144 17.7118 8.94785C17.7118 8.06385 17.5099 7.34871 17.1061 6.80242C16.7023 6.25613 16.1294 5.85883 15.3873 5.61051C14.6452 5.35227 13.7722 5.22314 12.7682 5.22314H9.7071ZM13.603 0.321426V17.6786H8.88862V0.321426H13.603Z" fill="#333333"/>
<path d="M26.3385 16.2632L37.4697 0.321426L40.9564 1.73682L29.8579 17.6786L26.3385 16.2632ZM37.4697 0.321426H42.2005V17.6786H37.4697V0.321426ZM25.1435 0.321426H29.8579V17.6786H25.1435V0.321426Z" fill="#333333"/>
<path d="M59.2739 7.48777V10.84H48.6501V7.48777H59.2739ZM50.1888 0.321426V17.6786H45.4744V0.321426H50.1888ZM62.4823 0.321426V17.6786H57.7679V0.321426H62.4823Z" fill="#333333"/>
<rect x="65.4866" y="5" width="23.1893" height="7.07143" fill="url(#paint0_linear_1069_158)"/>
<path d="M106.42 0.240602V3.62406H95.6228V0.240602H106.42ZM97.1908 0.240602V17.7594H92.4866V0.240602H97.1908ZM109.621 0.240602V17.7594H104.884V0.240602H109.621Z" fill="#333333"/>
<path d="M120.99 11.9098H115.861V8.52632H120.99C121.708 8.52632 122.302 8.43108 122.77 8.2406C123.238 8.0401 123.581 7.77444 123.799 7.44361C124.028 7.10276 124.142 6.71679 124.142 6.28571C124.142 5.81454 124.028 5.37845 123.799 4.97744C123.581 4.57644 123.238 4.25564 122.77 4.01504C122.302 3.76441 121.708 3.6391 120.99 3.6391H117.608V17.7594H112.904V0.240602H120.99C122.623 0.240602 124.022 0.501253 125.187 1.02256C126.363 1.54386 127.262 2.25564 127.882 3.15789C128.514 4.06015 128.83 5.09273 128.83 6.25564C128.83 7.09774 128.65 7.86967 128.291 8.57143C127.942 9.26316 127.425 9.85965 126.739 10.3609C126.064 10.8622 125.242 11.2481 124.273 11.5188C123.314 11.7794 122.22 11.9098 120.99 11.9098Z" fill="#333333"/>
<path d="M148.741 8.64662V9.36842C148.741 10.7018 148.523 11.8997 148.088 12.9624C147.663 14.0251 147.059 14.9323 146.275 15.6842C145.491 16.4361 144.554 17.0125 143.465 17.4135C142.387 17.8045 141.195 18 139.888 18C138.581 18 137.383 17.8045 136.295 17.4135C135.216 17.0125 134.28 16.4361 133.485 15.6842C132.69 14.9323 132.075 14.0251 131.639 12.9624C131.204 11.8997 130.986 10.7018 130.986 9.36842V8.64662C130.986 7.30326 131.198 6.10526 131.623 5.05263C132.059 3.98997 132.668 3.08271 133.452 2.33083C134.247 1.56892 135.184 0.992481 136.262 0.601504C137.351 0.200501 138.549 0 139.855 0C141.162 0 142.354 0.200501 143.432 0.601504C144.521 0.992481 145.463 1.56892 146.258 2.33083C147.053 3.08271 147.663 3.98997 148.088 5.05263C148.523 6.10526 148.741 7.30326 148.741 8.64662ZM144.021 9.36842V8.61654C144.021 7.77444 143.922 7.03258 143.726 6.39098C143.541 5.73935 143.269 5.19298 142.91 4.75188C142.561 4.30075 142.126 3.9599 141.603 3.72932C141.091 3.48872 140.509 3.36842 139.855 3.36842C139.191 3.36842 138.598 3.48872 138.075 3.72932C137.563 3.9599 137.133 4.30075 136.785 4.75188C136.436 5.19298 136.169 5.73935 135.984 6.39098C135.81 7.03258 135.723 7.77444 135.723 8.61654V9.36842C135.723 10.2005 135.81 10.9424 135.984 11.594C136.169 12.2456 136.442 12.802 136.801 13.2632C137.16 13.7143 137.596 14.0602 138.108 14.3008C138.63 14.5313 139.224 14.6466 139.888 14.6466C140.541 14.6466 141.124 14.5313 141.636 14.3008C142.148 14.0602 142.578 13.7143 142.926 13.2632C143.285 12.802 143.558 12.2456 143.743 11.594C143.928 10.9424 144.021 10.2005 144.021 9.36842Z" fill="#333333"/>
<path d="M160.796 1.96992H163.327C164.754 1.96992 166.071 2.11529 167.28 2.40602C168.489 2.68672 169.54 3.11779 170.433 3.69925C171.326 4.27068 172.017 4.99248 172.507 5.86466C173.008 6.73684 173.258 7.76441 173.258 8.94737C173.258 10.1604 173.008 11.2231 172.507 12.1353C172.017 13.0376 171.326 13.7895 170.433 14.391C169.54 14.9825 168.489 15.4286 167.28 15.7293C166.071 16.0201 164.754 16.1654 163.327 16.1654H160.796C159.38 16.1654 158.068 16.0201 156.859 15.7293C155.65 15.4286 154.6 14.9825 153.707 14.391C152.814 13.7895 152.117 13.0376 151.616 12.1353C151.115 11.2331 150.864 10.1805 150.864 8.97744C150.864 7.79449 151.115 6.76191 151.616 5.8797C152.117 4.99749 152.814 4.27068 153.707 3.69925C154.6 3.11779 155.65 2.68672 156.859 2.40602C158.068 2.11529 159.38 1.96992 160.796 1.96992ZM160.551 5.18797C159.56 5.18797 158.694 5.3183 157.953 5.57895C157.213 5.82957 156.636 6.23559 156.222 6.79699C155.819 7.34837 155.612 8.07519 155.601 8.97744C155.58 9.9198 155.776 10.6867 156.189 11.2782C156.603 11.8596 157.186 12.2857 157.937 12.5564C158.688 12.817 159.56 12.9474 160.551 12.9474H163.605C164.607 12.9474 165.478 12.812 166.218 12.5414C166.959 12.2707 167.531 11.8446 167.934 11.2632C168.336 10.6717 168.538 9.89975 168.538 8.94737C168.538 8.05514 168.336 7.33333 167.934 6.78196C167.531 6.23058 166.959 5.82957 166.218 5.57895C165.478 5.3183 164.607 5.18797 163.605 5.18797H160.551ZM164.438 0.240602V17.7594H159.734V0.240602H164.438Z" fill="#333333"/>
<path d="M177.146 16.3308L188.253 0.240602L191.732 1.66917L180.658 17.7594L177.146 16.3308ZM188.253 0.240602H192.974V17.7594H188.253V0.240602ZM175.954 0.240602H180.658V17.7594H175.954V0.240602Z" fill="#333333"/>
<defs>
<linearGradient id="paint0_linear_1069_158" x1="65.4866" y1="8.53571" x2="88.6759" y2="8.53571" gradientUnits="userSpaceOnUse">
<stop stop-color="#FFFF00"/>
<stop offset="1" stop-color="#333333"/>
</linearGradient>
</defs>
</svg>
