<svg width="11" height="11" viewBox="0 0 11 11" fill="none" xmlns="http://www.w3.org/2000/svg">
<path d="M4.83333 9.48249C5.02083 9.55151 5.22222 9.40802 5.22222 9.20097V2.34638C5.22222 2.2701 5.19444 2.19381 5.13542 2.14659C4.79514 1.86325 4.01389 1.5 3 1.5C2.12326 1.5 1.30382 1.74156 0.814236 1.93772C0.618056 2.01764 0.5 2.22106 0.5 2.44083V9.16646C0.5 9.38259 0.722222 9.53334 0.918403 9.46614C1.46528 9.27543 2.3316 9.05567 3 9.05567C3.58854 9.05567 4.37153 9.30994 4.83333 9.48249ZM6.16667 9.48249C6.62847 9.30994 7.41146 9.05567 8 9.05567C8.6684 9.05567 9.53472 9.27543 10.0816 9.46614C10.2778 9.53516 10.5 9.38259 10.5 9.16646V2.44083C10.5 2.22106 10.3819 2.01764 10.1858 1.93954C9.69618 1.74156 8.87674 1.5 8 1.5C6.98611 1.5 6.20486 1.86325 5.86458 2.14659C5.80729 2.19381 5.77778 2.2701 5.77778 2.34638V9.20097C5.77778 9.40802 5.9809 9.55151 6.16667 9.48249Z" fill="#333333"/>
</svg>
