<svg width="11" height="11" viewBox="0 0 11 11" fill="none" xmlns="http://www.w3.org/2000/svg">
<path d="M5.15847 0.0902344C5.36901 -0.0300781 5.62897 -0.0300781 5.84167 0.0902344L9.53269 2.19785L9.62507 2.23438V2.25371L10.6542 2.84238C10.9249 2.99707 11.0581 3.31504 10.9786 3.61582C10.8991 3.9166 10.6262 4.12715 10.3147 4.12715H0.687567C0.376043 4.12715 0.103191 3.9166 0.0236993 3.61582C-0.0557929 3.31504 0.0774102 2.99707 0.348113 2.84238L1.37507 2.25371V2.23438L1.4696 2.2L5.15847 0.0902344ZM1.37507 4.8125H2.75007V8.9375H3.60944V4.8125H4.98444V8.9375H6.01569V4.8125H7.39069V8.9375H8.25007V4.8125H9.62507V9.02988C9.63796 9.03633 9.65085 9.04492 9.66374 9.05352L10.695 9.74102C10.9464 9.90859 11.0602 10.2223 10.9721 10.5123C10.8841 10.8023 10.6155 11 10.3126 11H0.687567C0.384637 11 0.118231 10.8023 0.0301446 10.5123C-0.0579414 10.2223 0.0537774 9.90859 0.307293 9.74102L1.33854 9.05352C1.35143 9.04492 1.36432 9.03848 1.37721 9.02988V4.8125H1.37507Z" fill="#333333"/>
</svg>
