<svg width="11" height="11" viewBox="0 0 11 11" fill="none" xmlns="http://www.w3.org/2000/svg">
<path d="M2.83333 0.5C2.09792 0.5 1.5 1.06055 1.5 1.75V9.25C1.5 9.93945 2.09792 10.5 2.83333 10.5H8.16667C8.90208 10.5 9.5 9.93945 9.5 9.25V1.75C9.5 1.06055 8.90208 0.5 8.16667 0.5H2.83333ZM3.5 1.75H7.5C7.86875 1.75 8.16667 2.0293 8.16667 2.375V3C8.16667 3.3457 7.86875 3.625 7.5 3.625H3.5C3.13125 3.625 2.83333 3.3457 2.83333 3V2.375C2.83333 2.0293 3.13125 1.75 3.5 1.75ZM4.16667 4.875C4.16667 5.04076 4.09643 5.19973 3.9714 5.31694C3.84638 5.43415 3.67681 5.5 3.5 5.5C3.32319 5.5 3.15362 5.43415 3.0286 5.31694C2.90357 5.19973 2.83333 5.04076 2.83333 4.875C2.83333 4.70924 2.90357 4.55027 3.0286 4.43306C3.15362 4.31585 3.32319 4.25 3.5 4.25C3.67681 4.25 3.84638 4.31585 3.9714 4.43306C4.09643 4.55027 4.16667 4.70924 4.16667 4.875ZM3.5 7.375C3.32319 7.375 3.15362 7.30915 3.0286 7.19194C2.90357 7.07473 2.83333 6.91576 2.83333 6.75C2.83333 6.58424 2.90357 6.42527 3.0286 6.30806C3.15362 6.19085 3.32319 6.125 3.5 6.125C3.67681 6.125 3.84638 6.19085 3.9714 6.30806C4.09643 6.42527 4.16667 6.58424 4.16667 6.75C4.16667 6.91576 4.09643 7.07473 3.9714 7.19194C3.84638 7.30915 3.67681 7.375 3.5 7.375ZM2.83333 8.625C2.83333 8.2793 3.13125 8 3.5 8H5.5C5.86875 8 6.16667 8.2793 6.16667 8.625C6.16667 8.9707 5.86875 9.25 5.5 9.25H3.5C3.13125 9.25 2.83333 8.9707 2.83333 8.625ZM5.5 5.5C5.32319 5.5 5.15362 5.43415 5.0286 5.31694C4.90357 5.19973 4.83333 5.04076 4.83333 4.875C4.83333 4.70924 4.90357 4.55027 5.0286 4.43306C5.15362 4.31585 5.32319 4.25 5.5 4.25C5.67681 4.25 5.84638 4.31585 5.9714 4.43306C6.09643 4.55027 6.16667 4.70924 6.16667 4.875C6.16667 5.04076 6.09643 5.19973 5.9714 5.31694C5.84638 5.43415 5.67681 5.5 5.5 5.5ZM6.16667 6.75C6.16667 6.91576 6.09643 7.07473 5.9714 7.19194C5.84638 7.30915 5.67681 7.375 5.5 7.375C5.32319 7.375 5.15362 7.30915 5.0286 7.19194C4.90357 7.07473 4.83333 6.91576 4.83333 6.75C4.83333 6.58424 4.90357 6.42527 5.0286 6.30806C5.15362 6.19085 5.32319 6.125 5.5 6.125C5.67681 6.125 5.84638 6.19085 5.9714 6.30806C6.09643 6.42527 6.16667 6.58424 6.16667 6.75ZM7.5 5.5C7.32319 5.5 7.15362 5.43415 7.0286 5.31694C6.90357 5.19973 6.83333 5.04076 6.83333 4.875C6.83333 4.70924 6.90357 4.55027 7.0286 4.43306C7.15362 4.31585 7.32319 4.25 7.5 4.25C7.67681 4.25 7.84638 4.31585 7.9714 4.43306C8.09643 4.55027 8.16667 4.70924 8.16667 4.875C8.16667 5.04076 8.09643 5.19973 7.9714 5.31694C7.84638 5.43415 7.67681 5.5 7.5 5.5ZM8.16667 6.75C8.16667 6.91576 8.09643 7.07473 7.9714 7.19194C7.84638 7.30915 7.67681 7.375 7.5 7.375C7.32319 7.375 7.15362 7.30915 7.0286 7.19194C6.90357 7.07473 6.83333 6.91576 6.83333 6.75C6.83333 6.58424 6.90357 6.42527 7.0286 6.30806C7.15362 6.19085 7.32319 6.125 7.5 6.125C7.67681 6.125 7.84638 6.19085 7.9714 6.30806C8.09643 6.42527 8.16667 6.58424 8.16667 6.75ZM7.5 9.25C7.32319 9.25 7.15362 9.18415 7.0286 9.06694C6.90357 8.94973 6.83333 8.79076 6.83333 8.625C6.83333 8.45924 6.90357 8.30027 7.0286 8.18306C7.15362 8.06585 7.32319 8 7.5 8C7.67681 8 7.84638 8.06585 7.9714 8.18306C8.09643 8.30027 8.16667 8.45924 8.16667 8.625C8.16667 8.79076 8.09643 8.94973 7.9714 9.06694C7.84638 9.18415 7.67681 9.25 7.5 9.25Z" fill="#333333"/>
</svg>
