<svg width="11" height="11" viewBox="0 0 11 11" fill="none" xmlns="http://www.w3.org/2000/svg">
<path d="M5.90104 2.48661C6.11875 2.34598 6.26389 2.09085 6.26389 1.80357C6.26389 1.3596 5.92205 1 5.5 1C5.07795 1 4.73611 1.3596 4.73611 1.80357C4.73611 2.09286 4.88125 2.34598 5.09896 2.48661L4.00469 4.78884C3.8309 5.15446 3.38021 5.25893 3.07656 5.00379L1.375 3.57143C1.47049 3.43683 1.52778 3.27009 1.52778 3.08929C1.52778 2.64531 1.18594 2.28571 0.763889 2.28571C0.34184 2.28571 0 2.64531 0 3.08929C0 3.53326 0.34184 3.89286 0.763889 3.89286C0.767708 3.89286 0.773438 3.89286 0.777257 3.89286L1.65 8.9433C1.75503 9.55402 2.26111 10 2.85312 10H8.14688C8.73698 10 9.24306 9.55603 9.35 8.9433L10.2227 3.89286C10.2266 3.89286 10.2323 3.89286 10.2361 3.89286C10.6582 3.89286 11 3.53326 11 3.08929C11 2.64531 10.6582 2.28571 10.2361 2.28571C9.81406 2.28571 9.47222 2.64531 9.47222 3.08929C9.47222 3.27009 9.52951 3.43683 9.625 3.57143L7.92344 5.00379C7.61979 5.25893 7.1691 5.15446 6.99531 4.78884L5.90104 2.48661Z" fill="#333333"/>
</svg>
