<svg width="11" height="11" viewBox="0 0 11 11" fill="none" xmlns="http://www.w3.org/2000/svg">
<path d="M7.63889 1H3.36111C2.85503 1 2.44253 1.3832 2.46163 1.84727C2.46545 1.94043 2.46927 2.03359 2.475 2.125H0.458333C0.20434 2.125 0 2.31309 0 2.54688C0 4.17461 0.639757 5.30664 1.49913 6.0748C2.34514 6.83242 3.37639 7.21387 4.13646 7.40723C4.58333 7.52148 4.88889 7.86426 4.88889 8.20879C4.88889 8.57617 4.56424 8.875 4.1651 8.875H3.66667C3.32865 8.875 3.05556 9.12637 3.05556 9.4375C3.05556 9.74863 3.32865 10 3.66667 10H7.33333C7.67135 10 7.94444 9.74863 7.94444 9.4375C7.94444 9.12637 7.67135 8.875 7.33333 8.875H6.8349C6.43576 8.875 6.11111 8.57617 6.11111 8.20879C6.11111 7.86426 6.41476 7.51973 6.86354 7.40723C7.62552 7.21387 8.65677 6.83242 9.50278 6.0748C10.3602 5.30664 11 4.17461 11 2.54688C11 2.31309 10.7957 2.125 10.5417 2.125H8.525C8.53073 2.03359 8.53455 1.94219 8.53837 1.84727C8.55747 1.3832 8.14497 1 7.63889 1ZM0.933854 2.96875H2.54566C2.71944 4.55254 3.1033 5.61074 3.53681 6.31914C3.06128 6.12578 2.56667 5.85332 2.13889 5.47012C1.52778 4.92344 1.03125 4.13418 0.935764 2.96875H0.933854ZM8.86302 5.47012C8.43524 5.85332 7.94062 6.12578 7.4651 6.31914C7.89861 5.61074 8.28246 4.55254 8.45625 2.96875H10.0681C9.97066 4.13418 9.47413 4.92344 8.86493 5.47012H8.86302Z" fill="#333333"/>
</svg>
