<svg width="11" height="11" viewBox="0 0 11 11" fill="none" xmlns="http://www.w3.org/2000/svg">
<path d="M1.03125 1C0.461914 1 0 1.50391 0 2.125C0 2.47891 0.152539 2.81172 0.4125 3.025L5.0875 6.85C5.33242 7.04922 5.66758 7.04922 5.9125 6.85L10.5875 3.025C10.8475 2.81172 11 2.47891 11 2.125C11 1.50391 10.5381 1 9.96875 1H1.03125ZM0 3.625V8.5C0 9.32734 0.616602 10 1.375 10H9.625C10.3834 10 11 9.32734 11 8.5V3.625L6.325 7.45C5.83516 7.85078 5.16484 7.85078 4.675 7.45L0 3.625Z" fill="#333333"/>
</svg>
