<svg width="11" height="11" viewBox="0 0 11 11" fill="none" xmlns="http://www.w3.org/2000/svg">
<path d="M8.43843 0.958364C8.57668 0.664038 8.47358 0.3203 8.19004 0.131244C7.90651 -0.0578114 7.51988 -0.0406245 7.25509 0.169915L1.25638 4.98224C1.02206 5.1713 0.937704 5.47422 1.04784 5.74062C1.15797 6.00701 1.43916 6.18748 1.75081 6.18748H4.36353L2.56157 10.0416C2.42332 10.336 2.52642 10.6797 2.80996 10.8688C3.09349 11.0578 3.48012 11.0406 3.74491 10.8301L9.74362 6.01776C9.97794 5.8287 10.0623 5.52578 9.95216 5.25938C9.84203 4.99299 9.56318 4.81467 9.24919 4.81467H6.63647L8.43843 0.958364Z" />
</svg>
