<svg width="11" height="11" viewBox="0 0 11 11" fill="none" xmlns="http://www.w3.org/2000/svg">
<path d="M6.28568 0.785714C6.28568 0.351116 5.93456 0 5.49997 0C5.06537 0 4.71425 0.351116 4.71425 0.785714V7.07143C4.71425 7.50603 5.06537 7.85714 5.49997 7.85714C5.93456 7.85714 6.28568 7.50603 6.28568 7.07143V0.785714ZM5.49997 11C5.76045 11 6.01026 10.8965 6.19445 10.7123C6.37863 10.5281 6.48211 10.2783 6.48211 10.0179C6.48211 9.75738 6.37863 9.50757 6.19445 9.32338C6.01026 9.13919 5.76045 9.03572 5.49997 9.03572C5.23948 9.03572 4.98967 9.13919 4.80549 9.32338C4.6213 9.50757 4.51782 9.75738 4.51782 10.0179C4.51782 10.2783 4.6213 10.5281 4.80549 10.7123C4.98967 10.8965 5.23948 11 5.49997 11Z" fill="#333333"/>
</svg>
