<svg width="11" height="11" viewBox="0 0 11 11" fill="none" xmlns="http://www.w3.org/2000/svg">
<path d="M2 10C1.725 10 1.48958 9.90208 1.29375 9.70625C1.09792 9.51042 1 9.275 1 9V2C1 1.725 1.09792 1.48958 1.29375 1.29375C1.48958 1.09792 1.725 1 2 1H6.5C6.77614 1 7 1.22386 7 1.5C7 1.77614 6.77614 2 6.5 2H2V9H6.5C6.77614 9 7 9.22386 7 9.5C7 9.77614 6.77614 10 6.5 10H2ZM7.86262 7.63738C7.66393 7.83607 7.34048 7.83178 7.14713 7.62788C6.9609 7.43149 6.965 7.1225 7.15637 6.93113L8.0875 6H4.5C4.22386 6 4 5.77614 4 5.5C4 5.22386 4.22386 5 4.5 5H8.0875L7.15637 4.06887C6.965 3.8775 6.9609 3.56851 7.14713 3.37212C7.34048 3.16822 7.66393 3.16393 7.86262 3.36262L9.64645 5.14645C9.84171 5.34171 9.84171 5.65829 9.64645 5.85355L7.86262 7.63738Z" fill="#333333"/>
</svg>
