<svg width="11" height="11" viewBox="0 0 11 11" fill="none" xmlns="http://www.w3.org/2000/svg">
<path d="M4.0558 0.116553C4.22991 -0.0402757 4.5 -0.0381274 4.67411 0.118701C5.29018 0.675119 5.8683 1.2745 6.40848 1.9233C6.65402 1.61394 6.93304 1.27665 7.23438 1.00167C7.41071 0.842689 7.68304 0.842689 7.85938 1.00381C8.6317 1.71276 9.28572 2.64944 9.74554 3.53884C10.1987 4.41536 10.5 5.31122 10.5 5.94283C10.5 8.6841 8.27232 11 5.5 11C2.69643 11 0.5 8.68195 0.5 5.94068C0.5 5.11572 0.897321 4.10815 1.51339 3.11133C2.13616 2.09946 3.01563 1.04463 4.0558 0.116553ZM5.53795 8.9376C6.10268 8.9376 6.60268 8.78722 7.07366 8.48645C8.01339 7.85484 8.26563 6.59162 7.70089 5.59909C7.60045 5.40575 7.34375 5.39286 7.19866 5.55613L6.63616 6.18559C6.48884 6.34886 6.22321 6.34457 6.08482 6.17485C5.71652 5.7237 5.05804 4.91807 4.68304 4.46048C4.54241 4.28861 4.27455 4.28646 4.1317 4.45833C3.37723 5.37137 2.99777 5.94712 2.99777 6.59377C3 8.06538 4.12946 8.9376 5.53795 8.9376Z" fill="#333333"/>
</svg>
