<svg width="11" height="11" viewBox="0 0 11 11" fill="none" xmlns="http://www.w3.org/2000/svg">
<path d="M0.66696 1.57977C0.488213 1.45165 0.228686 1.48134 0.0877513 1.64383C-0.0531837 1.80633 -0.020528 2.04226 0.158219 2.17039L10.333 9.42023C10.5118 9.54835 10.7713 9.51866 10.9122 9.35617C11.0532 9.19367 11.0205 8.95774 10.8418 8.82961L9.03369 7.54214C9.7143 6.90778 10.1749 6.19686 10.4069 5.69218C10.4637 5.56875 10.4637 5.43125 10.4069 5.30782C10.1509 4.75002 9.6129 3.93753 8.80854 3.25942C8.00074 2.57506 6.88873 2.00008 5.5 2.00008C4.32783 2.00008 3.3516 2.41101 2.59021 2.95006L0.66696 1.57977ZM3.83456 3.83597C4.27283 3.47192 4.85892 3.25005 5.5 3.25005C6.86638 3.25005 7.97496 4.25784 7.97496 5.5C7.97496 5.88905 7.86668 6.25467 7.6759 6.57341L7.01247 6.10155C7.15685 5.79999 7.19466 5.45469 7.09497 5.11251C6.90419 4.46409 6.27342 4.02816 5.57219 4.0016C5.4725 3.99847 5.41406 4.09691 5.445 4.1844C5.48109 4.2844 5.50172 4.39065 5.50172 4.50158C5.50172 4.66096 5.46047 4.81095 5.38828 4.94376L3.83628 3.83754L3.83456 3.83597ZM6.41092 7.59214C6.12905 7.6937 5.8214 7.74995 5.5 7.74995C4.13362 7.74995 3.02504 6.74216 3.02504 5.5C3.02504 5.39219 3.03364 5.2875 3.04911 5.18438L1.42835 4.02347C1.03648 4.48752 0.756333 4.95001 0.593055 5.30782C0.536337 5.43125 0.536337 5.56875 0.593055 5.69218C0.849144 6.24998 1.3871 7.06247 2.19146 7.74058C2.99926 8.42494 4.11127 8.99992 5.5 8.99992C6.32155 8.99992 7.04513 8.79837 7.66902 8.49212L6.41092 7.59214Z" fill="#333333"/>
</svg>
