<svg width="11" height="11" viewBox="0 0 11 11" fill="none" xmlns="http://www.w3.org/2000/svg">
<path d="M10.9971 5.49023C10.9971 5.8418 10.7106 6.11719 10.386 6.11719H9.77479L9.78816 9.24609C9.78816 9.29883 9.78434 9.35156 9.77861 9.4043V9.71875C9.77861 10.1504 9.43674 10.5 9.01466 10.5H8.70907C8.68807 10.5 8.66706 10.5 8.64605 10.498C8.61931 10.5 8.59257 10.5 8.56583 10.5H7.94512H7.48675C7.06466 10.5 6.72279 10.1504 6.72279 9.71875V9.25V8C6.72279 7.6543 6.44968 7.375 6.11163 7.375H4.88931C4.55126 7.375 4.27814 7.6543 4.27814 8V9.25V9.71875C4.27814 10.1504 3.93627 10.5 3.51419 10.5H3.05582H2.44656C2.41791 10.5 2.38927 10.498 2.36062 10.4961C2.3377 10.498 2.31478 10.5 2.29186 10.5H1.98628C1.5642 10.5 1.22233 10.1504 1.22233 9.71875V7.53125C1.22233 7.51367 1.22233 7.49414 1.22424 7.47656V6.11719H0.611163C0.267384 6.11719 0 5.84375 0 5.49023C0 5.31445 0.0572965 5.1582 0.190988 5.02148L5.08793 0.65625C5.22162 0.519531 5.37442 0.5 5.50811 0.5C5.6418 0.5 5.79459 0.539062 5.90918 0.636719L10.787 5.02148C10.9398 5.1582 11.0162 5.31445 10.9971 5.49023Z" fill="#333333"/>
</svg>
