<svg width="11" height="11" viewBox="0 0 11 11" fill="none" xmlns="http://www.w3.org/2000/svg">
<path d="M1.375 1.375C1.375 0.994727 1.06777 0.6875 0.6875 0.6875C0.307227 0.6875 0 0.994727 0 1.375V8.59375C0 9.54336 0.769141 10.3125 1.71875 10.3125H10.3125C10.6928 10.3125 11 10.0053 11 9.625C11 9.24473 10.6928 8.9375 10.3125 8.9375H1.71875C1.52969 8.9375 1.375 8.78281 1.375 8.59375V1.375ZM10.1105 3.23555C10.3791 2.96699 10.3791 2.53086 10.1105 2.2623C9.84199 1.99375 9.40586 1.99375 9.1373 2.2623L6.875 4.52676L5.6418 3.29355C5.37324 3.025 4.93711 3.025 4.66855 3.29355L2.2623 5.6998C1.99375 5.96836 1.99375 6.40449 2.2623 6.67305C2.53086 6.9416 2.96699 6.9416 3.23555 6.67305L5.15625 4.75449L6.38945 5.9877C6.65801 6.25625 7.09414 6.25625 7.3627 5.9877L10.1127 3.2377L10.1105 3.23555Z" fill="#333333"/>
</svg>
