<svg width="11" height="11" viewBox="0 0 11 11" fill="none" xmlns="http://www.w3.org/2000/svg">
<path d="M4.77568 3.29637C5.22716 3.32876 5.66655 3.45769 6.0637 3.67489C6.46077 3.89206 6.80656 4.19217 7.07753 4.55471C7.33717 4.90216 7.26617 5.39465 6.91896 5.65448C6.57146 5.91416 6.07899 5.84326 5.81919 5.49591C5.68306 5.31374 5.50901 5.16299 5.30971 5.05396C5.11032 4.94491 4.8897 4.87991 4.66315 4.86367C4.4366 4.84743 4.20897 4.88036 3.99613 4.95984C3.78344 5.0393 3.58996 5.16324 3.42936 5.32404L2.01551 6.73789L2.01654 6.73891C1.72797 7.03815 1.56792 7.43882 1.57151 7.85505C1.57513 8.27145 1.74206 8.66982 2.03597 8.96403C2.32986 9.25817 2.72767 9.42488 3.14291 9.42849C3.55413 9.43197 3.94988 9.27443 4.24779 8.99063L5.05804 8.1814C5.36467 7.87447 5.86207 7.87388 6.16907 8.18038C6.4759 8.4869 6.47631 8.98438 6.17009 9.29141L5.34961 10.1129C4.75441 10.6884 3.95637 11.0071 3.12858 10.9999C2.30089 10.9926 1.50898 10.6597 0.923924 10.074C0.339076 9.48839 0.00730097 8.69608 0.000115485 7.86835C-0.00696004 7.04059 0.31134 6.24298 0.886072 5.64732L0.895279 5.63709L2.31731 4.21404C2.63723 3.89367 3.02264 3.64604 3.44675 3.48768C3.87086 3.32931 4.32414 3.264 4.77568 3.29637ZM7.87142 0.0001194C8.69911 0.00738969 9.49102 0.34033 10.0761 0.925974C10.6609 1.51162 10.9927 2.30393 10.9999 3.13166C11.007 3.95942 10.6887 4.75702 10.1139 5.35269L10.1047 5.36292L8.68269 6.78597C8.36277 7.10633 7.97736 7.35397 7.55325 7.51233C7.12914 7.67069 6.67586 7.73601 6.22432 7.70364C5.77284 7.67125 5.33345 7.54232 4.9363 7.32511C4.53923 7.10795 4.19344 6.80784 3.92247 6.4453C3.66283 6.09785 3.73383 5.60536 4.08104 5.34552C4.42854 5.08585 4.92101 5.15675 5.18081 5.5041C5.31694 5.68626 5.49099 5.83701 5.69029 5.94605C5.88968 6.0551 6.1103 6.1201 6.33685 6.13634C6.5634 6.15258 6.79103 6.11965 7.00387 6.04017C7.21656 5.96071 7.41004 5.83676 7.57064 5.67597L8.98244 4.2611C9.2712 3.96183 9.43208 3.56133 9.42849 3.14496C9.42487 2.72856 9.25794 2.33019 8.96403 2.03598C8.67014 1.74183 8.27233 1.57513 7.85709 1.57151C7.44201 1.568 7.04184 1.72767 6.743 2.01654L5.93582 2.82065C5.62826 3.12662 5.13086 3.12505 4.82479 2.81758C4.51877 2.51008 4.51949 2.01267 4.82684 1.70656L5.6422 0.895283L5.65039 0.887099C6.24559 0.311649 7.04363 -0.00708112 7.87142 0.0001194Z" fill="#333333"/>
</svg>
