<svg width="11" height="11" viewBox="0 0 11 11" fill="none" xmlns="http://www.w3.org/2000/svg">
<path d="M2.64286 8.83315V8.80887C2.64306 8.57235 2.83486 8.3803 3.07143 8.3803H3.61468C3.7825 8.38046 3.92617 8.47824 3.99637 8.61886H8.09961V2.38114H4.03739C4.01211 2.59358 3.83387 2.75844 3.61468 2.75865H3.07143C2.83474 2.75865 2.64286 2.56677 2.64286 2.33008V2.16685C2.64286 1.84627 2.7622 1.56671 2.99275 1.34068C3.22311 1.11499 3.50604 1 3.82896 1H8.3139C8.63682 1 8.91975 1.11498 9.15011 1.34068C9.38066 1.56671 9.5 1.84627 9.5 2.16685V8.83315C9.5 9.15373 9.38066 9.43329 9.15011 9.65932C8.91975 9.88502 8.63682 10 8.3139 10H3.82896C3.50604 10 3.22311 9.88501 2.99275 9.65932C2.7622 9.43329 2.64286 9.15373 2.64286 8.83315Z" fill="#333333"/>
<path d="M3.62388 3.3178C3.89186 3.04075 4.3347 3.03457 4.60993 3.30441L6.53683 5.19364C6.70822 5.36167 6.70822 5.63833 6.53683 5.80636L4.60993 7.69559C4.3347 7.96543 3.89186 7.95925 3.62388 7.6822C3.35864 7.40777 3.36472 6.9709 3.63728 6.70368L4.16044 6.19057H1.19057C0.809231 6.19057 0.500002 5.88134 0.5 5.5C0.5 5.11866 0.80923 4.80943 1.19057 4.80943H4.16044L3.63728 4.29632C3.36472 4.02911 3.35864 3.59223 3.62388 3.3178Z" fill="#333333"/>
</svg>
