<svg width="11" height="11" viewBox="0 0 11 11" fill="none" xmlns="http://www.w3.org/2000/svg">
<path d="M7.79167 2.87888C7.79167 3.96128 6.39566 5.89015 5.78264 6.6851C5.63559 6.87541 5.3625 6.87541 5.21736 6.6851C4.60434 5.89015 3.20833 3.96128 3.20833 2.87888C3.20833 1.56455 4.23385 0.5 5.5 0.5C6.76615 0.5 7.79167 1.56455 7.79167 2.87888ZM7.94444 4.47274C8.01128 4.33595 8.0724 4.19916 8.12778 4.06436C8.13733 4.04057 8.14688 4.0148 8.15642 3.99101L10.3717 3.07118C10.6734 2.94629 11 3.17624 11 3.51325V8.8816C11 9.07588 10.8854 9.25033 10.7116 9.32368L7.94444 10.4715V4.47274ZM2.62778 3.24166C2.67361 3.52118 2.76528 3.80268 2.87222 4.06436C2.9276 4.19916 2.98872 4.33595 3.05556 4.47274V9.4565L0.628299 10.4655C0.326563 10.5904 0 10.3605 0 10.0235V4.65512C0 4.46084 0.114583 4.28639 0.288368 4.21304L2.62969 3.24166H2.62778ZM6.26007 7.08158C6.52552 6.73664 6.94184 6.17562 7.33333 5.55513V10.4973L3.66667 9.40892V5.55513C4.05816 6.17562 4.47448 6.73664 4.73993 7.08158C5.13142 7.58907 5.86858 7.58907 6.26007 7.08158ZM5.5 3.51325C5.7026 3.51325 5.89689 3.42971 6.04015 3.281C6.18341 3.13229 6.26389 2.9306 6.26389 2.72029C6.26389 2.50998 6.18341 2.30829 6.04015 2.15958C5.89689 2.01087 5.7026 1.92733 5.5 1.92733C5.2974 1.92733 5.10311 2.01087 4.95985 2.15958C4.81659 2.30829 4.73611 2.50998 4.73611 2.72029C4.73611 2.9306 4.81659 3.13229 4.95985 3.281C5.10311 3.42971 5.2974 3.51325 5.5 3.51325Z" fill="#333333"/>
</svg>
