<svg width="11" height="11" viewBox="0 0 11 11" fill="none" xmlns="http://www.w3.org/2000/svg">
<path d="M3.71429 3.09375V4.125H7.28571V3.09375C7.28571 2.14414 6.48661 1.375 5.5 1.375C4.51339 1.375 3.71429 2.14414 3.71429 3.09375ZM2.28571 4.125V3.09375C2.28571 1.38574 3.72545 0 5.5 0C7.27455 0 8.71429 1.38574 8.71429 3.09375V4.125H9.07143C9.85938 4.125 10.5 4.7416 10.5 5.5V9.625C10.5 10.3834 9.85938 11 9.07143 11H1.92857C1.14063 11 0.5 10.3834 0.5 9.625V5.5C0.5 4.7416 1.14063 4.125 1.92857 4.125H2.28571Z" fill="#333333"/>
</svg>
