<svg width="11" height="11" viewBox="0 0 11 11" fill="none" xmlns="http://www.w3.org/2000/svg">
<g clip-path="url(#clip0_1249_448)">
<path d="M1.875 7.88477V9.125H3.11621L7.36426 4.875L6.12793 3.63867L1.875 7.88477ZM10.125 2.93359C10.125 3.11433 10.0934 3.29086 10.0293 3.45996C9.95991 3.64289 9.85177 3.80351 9.71484 3.94043L3.53027 10.125H0.875V7.46973L7.08691 1.26953C7.21993 1.14762 7.37048 1.05042 7.53711 0.981445C7.70969 0.910031 7.89162 0.875 8.07812 0.875C8.26459 0.875 8.44609 0.91027 8.61914 0.979492C8.7986 1.05129 8.95494 1.16039 9.08691 1.30078L9.08789 1.2998L9.71777 1.94141C9.85792 2.07491 9.96409 2.23404 10.0312 2.41699C10.0922 2.5831 10.125 2.75656 10.125 2.93359Z" fill="#333333"/>
</g>
<defs>
<clipPath id="clip0_1249_448">
<rect width="11" height="11" fill="white"/>
</clipPath>
</defs>
</svg>
