<svg width="11" height="11" viewBox="0 0 11 11" fill="none" xmlns="http://www.w3.org/2000/svg">
<path d="M10.7308 1.5659C11.0888 1.2079 11.0888 0.626505 10.7308 0.268502C10.3728 -0.0895007 9.79138 -0.0895007 9.43338 0.268502L0.268502 9.43338C-0.0895007 9.79138 -0.0895007 10.3728 0.268502 10.7308C0.626505 11.0888 1.2079 11.0888 1.5659 10.7308L10.7308 1.5659ZM3.6681 1.83512C3.6681 1.34899 3.47498 0.882763 3.13123 0.539014C2.78748 0.195264 2.32126 0.00214793 1.83512 0.00214793C1.34899 0.00214793 0.882764 0.195264 0.539014 0.539014C0.195265 0.882763 0.00214801 1.34899 0.00214801 1.83512C0.00214801 2.32126 0.195265 2.78748 0.539014 3.13123C0.882764 3.47498 1.34899 3.6681 1.83512 3.6681C2.32126 3.6681 2.78748 3.47498 3.13123 3.13123C3.47498 2.78748 3.6681 2.32126 3.6681 1.83512ZM11 9.16702C11 8.68089 10.8069 8.21467 10.4631 7.87092C10.1194 7.52717 9.65316 7.33405 9.16702 7.33405C8.68089 7.33405 8.21467 7.52717 7.87092 7.87092C7.52717 8.21467 7.33405 8.68089 7.33405 9.16702C7.33405 9.65316 7.52717 10.1194 7.87092 10.4631C8.21467 10.8069 8.68089 11 9.16702 11C9.65316 11 10.1194 10.8069 10.4631 10.4631C10.8069 10.1194 11 9.65316 11 9.16702Z" fill="#333333"/>
</svg>
