<svg width="11" height="11" viewBox="0 0 11 11" fill="none" xmlns="http://www.w3.org/2000/svg">
<path d="M5.52101 5.1875V0.824219C5.52101 0.648438 5.6631 0.5 5.84578 0.5C8.35662 0.5 10.3925 2.45898 10.3925 4.875C10.3925 5.05078 10.2382 5.1875 10.0556 5.1875H5.52101ZM0 5.8125C0 3.44336 1.82884 1.48242 4.20165 1.16992C4.38839 1.14453 4.54672 1.28906 4.54672 1.4707V6.125L7.72333 9.18164C7.85933 9.3125 7.84918 9.52734 7.69288 9.63281C6.89721 10.1797 5.92291 10.5 4.87148 10.5C2.18202 10.5 0 8.40234 0 5.8125ZM10.6848 6.125C10.8736 6.125 11.0217 6.27734 10.9974 6.45703C10.8411 7.54883 10.2951 8.51953 9.49736 9.23633C9.37558 9.3457 9.18478 9.33789 9.06705 9.22266L5.84578 6.125H10.6848Z" fill="#333333"/>
</svg>
