<svg width="11" height="11" viewBox="0 0 11 11" fill="none" xmlns="http://www.w3.org/2000/svg">
<path d="M2.1175 8.305C2.585 7.9475 3.1075 7.66562 3.685 7.45937C4.2625 7.25312 4.8675 7.15 5.5 7.15C6.1325 7.15 6.7375 7.25312 7.315 7.45937C7.8925 7.66562 8.415 7.9475 8.8825 8.305C9.20333 7.92917 9.45312 7.50292 9.63187 7.02625C9.81062 6.54958 9.9 6.04083 9.9 5.5C9.9 4.28083 9.47146 3.24271 8.61438 2.38563C7.75729 1.52854 6.71917 1.1 5.5 1.1C4.28083 1.1 3.24271 1.52854 2.38563 2.38563C1.52854 3.24271 1.1 4.28083 1.1 5.5C1.1 6.04083 1.18937 6.54958 1.36812 7.02625C1.54687 7.50292 1.79667 7.92917 2.1175 8.305ZM4.13187 5.49312C3.76062 5.12187 3.575 4.66583 3.575 4.125C3.575 3.58417 3.76062 3.12813 4.13187 2.75687C4.50312 2.38562 4.95917 2.2 5.5 2.2C6.04083 2.2 6.49687 2.38562 6.86812 2.75687C7.23938 3.12813 7.425 3.58417 7.425 4.125C7.425 4.66583 7.23938 5.12187 6.86812 5.49312C6.49687 5.86437 6.04083 6.05 5.5 6.05C4.95917 6.05 4.50312 5.86437 4.13187 5.49312ZM5.5 11C4.73917 11 4.02417 10.8556 3.355 10.5669C2.68583 10.2781 2.10375 9.88625 1.60875 9.39125C1.11375 8.89625 0.721875 8.31417 0.433125 7.645C0.144375 6.97583 0 6.26083 0 5.5C0 4.73917 0.144375 4.02417 0.433125 3.355C0.721875 2.68583 1.11375 2.10375 1.60875 1.60875C2.10375 1.11375 2.68583 0.721875 3.355 0.433125C4.02417 0.144375 4.73917 0 5.5 0C6.26083 0 6.97583 0.144375 7.645 0.433125C8.31417 0.721875 8.89625 1.11375 9.39125 1.60875C9.88625 2.10375 10.2781 2.68583 10.5669 3.355C10.8556 4.02417 11 4.73917 11 5.5C11 6.26083 10.8556 6.97583 10.5669 7.645C10.2781 8.31417 9.88625 8.89625 9.39125 9.39125C8.89625 9.88625 8.31417 10.2781 7.645 10.5669C6.97583 10.8556 6.26083 11 5.5 11Z" />
</svg>
