<svg width="11" height="11" viewBox="0 0 11 11" fill="none" xmlns="http://www.w3.org/2000/svg">
<path d="M5.5 5.5C6.18199 5.5 6.83604 5.23661 7.31827 4.76777C7.80051 4.29893 8.07143 3.66304 8.07143 3C8.07143 2.33696 7.80051 1.70107 7.31827 1.23223C6.83604 0.763392 6.18199 0.5 5.5 0.5C4.81801 0.5 4.16396 0.763392 3.68173 1.23223C3.19949 1.70107 2.92857 2.33696 2.92857 3C2.92857 3.66304 3.19949 4.29893 3.68173 4.76777C4.16396 5.23661 4.81801 5.5 5.5 5.5ZM4.58192 6.4375C2.60313 6.4375 1 7.99609 1 9.91992C1 10.2402 1.26719 10.5 1.59665 10.5H9.40335C9.73281 10.5 10 10.2402 10 9.91992C10 7.99609 8.39688 6.4375 6.41808 6.4375H4.58192Z" fill="#333333"/>
</svg>
