<svg width="11" height="11" viewBox="0 0 11 11" fill="none" xmlns="http://www.w3.org/2000/svg">
<path d="M5.5 11C6.95869 11 8.35764 10.4205 9.38909 9.38909C10.4205 8.35764 11 6.95869 11 5.5C11 4.04131 10.4205 2.64236 9.38909 1.61091C8.35764 0.579463 6.95869 0 5.5 0C4.04131 0 2.64236 0.579463 1.61091 1.61091C0.579463 2.64236 0 4.04131 0 5.5C0 6.95869 0.579463 8.35764 1.61091 9.38909C2.64236 10.4205 4.04131 11 5.5 11ZM3.64805 3.55137C3.81777 3.07227 4.27324 2.75 4.78242 2.75H6.03496C6.78477 2.75 7.39062 3.35801 7.39062 4.10566C7.39062 4.59121 7.13066 5.04023 6.70957 5.28301L6.01562 5.68047C6.01133 5.95977 5.78145 6.1875 5.5 6.1875C5.21426 6.1875 4.98438 5.95762 4.98438 5.67188V5.38184C4.98438 5.19707 5.0832 5.02734 5.24434 4.93496L6.19609 4.38926C6.29707 4.33125 6.35938 4.22383 6.35938 4.10781C6.35938 3.92734 6.21328 3.7834 6.03496 3.7834H4.78242C4.70938 3.7834 4.64492 3.82852 4.62129 3.89727L4.6127 3.92305C4.51816 4.1916 4.22168 4.33125 3.95527 4.23672C3.68887 4.14219 3.54707 3.8457 3.6416 3.5793L3.6502 3.55352L3.64805 3.55137ZM4.8125 7.5625C4.8125 7.38016 4.88493 7.2053 5.01386 7.07636C5.1428 6.94743 5.31766 6.875 5.5 6.875C5.68234 6.875 5.8572 6.94743 5.98614 7.07636C6.11507 7.2053 6.1875 7.38016 6.1875 7.5625C6.1875 7.74484 6.11507 7.9197 5.98614 8.04864C5.8572 8.17757 5.68234 8.25 5.5 8.25C5.31766 8.25 5.1428 8.17757 5.01386 8.04864C4.88493 7.9197 4.8125 7.74484 4.8125 7.5625Z" fill="#333333"/>
</svg>
