<svg width="11" height="11" viewBox="0 0 11 11" fill="none" xmlns="http://www.w3.org/2000/svg">
<path d="M3.8901 9.75679C3.38976 9.53909 2.95434 9.24499 2.58385 8.8745C2.21337 8.50402 1.91927 8.0686 1.70156 7.56825C1.54282 7.20342 1.44195 6.81929 1.39895 6.41587C1.37213 6.16416 1.5802 5.95836 1.83333 5.95836C2.08646 5.95836 2.28797 6.1645 2.32032 6.41556C2.41028 7.11356 2.71201 7.71932 3.22552 8.23284C3.84809 8.8554 4.60625 9.16669 5.5 9.16669C6.39375 9.16669 7.15191 8.8554 7.77448 8.23284C8.39705 7.61027 8.70833 6.85211 8.70833 5.95836C8.70833 5.06461 8.39705 4.30645 7.77448 3.68388C7.15191 3.06131 6.39375 2.75002 5.5 2.75002H5.43125L6.02408 3.63722C6.16224 3.84399 6.11717 4.12236 5.92084 4.27497C5.71153 4.43766 5.40949 4.39711 5.2505 4.18498L3.8309 2.29095C3.7481 2.18046 3.77053 2.02377 3.88102 1.94096L5.79472 0.506631C5.99604 0.355739 6.28197 0.399241 6.42931 0.603179C6.57843 0.809583 6.52671 1.0985 6.31525 1.24035L5.43125 1.83336H5.5C6.07292 1.83336 6.60955 1.94221 7.1099 2.15992C7.61024 2.37763 8.04566 2.67172 8.41615 3.04221C8.78663 3.4127 9.08073 3.84811 9.29844 4.34846C9.51615 4.84881 9.625 5.38544 9.625 5.95836C9.625 6.53127 9.51615 7.06791 9.29844 7.56825C9.08073 8.0686 8.78663 8.50402 8.41615 8.8745C8.04566 9.24499 7.61024 9.53909 7.1099 9.75679C6.60955 9.9745 6.07292 10.0834 5.5 10.0834C4.92708 10.0834 4.39045 9.9745 3.8901 9.75679Z" fill="#333333" stroke="#333333" stroke-width="0.25"/>
</svg>
