<svg width="11" height="11" viewBox="0 0 11 11" fill="none" xmlns="http://www.w3.org/2000/svg">
<path d="M8.381 4.97622C8.381 3.09581 6.85663 1.57144 4.97622 1.57144C3.09581 1.57144 1.57144 3.09581 1.57144 4.97622C1.57144 6.85663 3.09581 8.381 4.97622 8.381C5.89923 8.381 6.73443 8.01161 7.3477 7.41522C7.3582 7.40338 7.36909 7.39178 7.38043 7.38043C7.39178 7.36909 7.40338 7.3582 7.41522 7.3477C8.01161 6.73443 8.381 5.89923 8.381 4.97622ZM9.95243 4.97622C9.95243 6.06672 9.59994 7.07405 9.00507 7.89402L10.7699 9.65881C11.0767 9.96566 11.0767 10.463 10.7699 10.7699C10.463 11.0767 9.96566 11.0767 9.65881 10.7699L7.89402 9.00507C7.07405 9.59994 6.06672 9.95243 4.97622 9.95243C2.22793 9.95243 0 7.72451 0 4.97622C0 2.22793 2.22793 0 4.97622 0C7.72451 0 9.95243 2.22793 9.95243 4.97622Z" fill="#333333"/>
</svg>
