<svg width="11" height="11" viewBox="0 0 11 11" fill="none" xmlns="http://www.w3.org/2000/svg">
<path d="M1.33325 9.16669V5.49969C1.33343 5.2237 1.55722 4.99969 1.83325 4.99969C2.10929 4.99969 2.33308 5.2237 2.33325 5.49969V9.16669C2.33325 9.27719 2.37718 9.38347 2.45532 9.46161C2.53345 9.53965 2.63981 9.58368 2.75024 9.58368H8.25024C8.36048 9.58359 8.46616 9.53947 8.54419 9.46161C8.62233 9.38347 8.66626 9.27719 8.66626 9.16669V5.49969C8.66644 5.22381 8.89038 4.99987 9.16626 4.99969C9.44229 4.99969 9.66608 5.2237 9.66626 5.49969V9.16669C9.66626 9.54241 9.5169 9.90296 9.25122 10.1686C8.98565 10.434 8.6257 10.5836 8.25024 10.5837H2.75024C2.3746 10.5837 2.01395 10.4342 1.74829 10.1686C1.48261 9.90296 1.33325 9.54241 1.33325 9.16669ZM5.00024 6.87469V2.12274L4.01978 3.10321C3.82451 3.29847 3.50801 3.29847 3.31274 3.10321C3.11781 2.90792 3.11759 2.59133 3.31274 2.39618L5.14673 0.563171L5.2229 0.500671C5.30439 0.446414 5.4009 0.416687 5.50024 0.416687C5.63274 0.416773 5.76007 0.46948 5.85376 0.563171L7.68677 2.39618C7.88198 2.59139 7.88187 2.90794 7.68677 3.10321C7.49151 3.29847 7.175 3.29847 6.97974 3.10321L6.00024 2.12372V6.87469C6.00024 7.15073 5.77624 7.37452 5.50024 7.37469C5.2241 7.37469 5.00024 7.15084 5.00024 6.87469Z" fill="#333333"/>
</svg>
