<svg width="11" height="11" viewBox="0 0 11 11" fill="none" xmlns="http://www.w3.org/2000/svg">
<path d="M5.50001 0C5.59884 0 5.69767 0.0214844 5.7879 0.0623047L9.83341 1.77891C10.3061 1.97871 10.6584 2.44492 10.6563 3.00781C10.6455 5.13906 9.76895 9.03848 6.0672 10.8109C5.70841 10.9828 5.29161 10.9828 4.93282 10.8109C1.23106 9.03848 0.354502 5.13906 0.34376 3.00781C0.341611 2.44492 0.693955 1.97871 1.16661 1.77891L5.21427 0.0623047C5.30235 0.0214844 5.40118 0 5.50001 0ZM5.50001 1.43516V9.55625C8.46485 8.12109 9.26192 4.94355 9.28126 3.03789L5.50001 1.43516Z" fill="#333333"/>
</svg>
