<svg width="11" height="11" viewBox="0 0 11 11" fill="none" xmlns="http://www.w3.org/2000/svg">
<path d="M3.9375 5.49997C3.9375 6.41142 4.71875 6.9583 5.5 6.9583C6.28125 6.9583 7.0625 6.41142 7.0625 5.49997C7.0625 4.63421 6.35762 4.09739 5.61741 4.04573C5.57834 4.04301 5.65658 4.04573 5.61741 4.04573C5.52676 4.04573 5.467 4.13255 5.48502 4.22139C5.4985 4.28788 5.50565 4.3579 5.50565 4.43126C5.50565 5.0764 4.95267 5.46348 4.3997 5.46348C4.30773 5.46348 4.16606 5.43237 4.06484 5.40671C4.00207 5.39079 3.9375 5.43521 3.9375 5.49997Z" fill="#333333"/>
<path fill-rule="evenodd" clip-rule="evenodd" d="M0.74223 5.92523C0.582119 5.66063 0.569437 5.33306 0.721179 5.06357C1.41324 3.83452 3.00618 2 5.5 2C7.99382 2 9.58676 3.83452 10.2788 5.06357C10.4306 5.33306 10.4179 5.66063 10.2578 5.92523C9.51405 7.1543 8.00141 9 5.5 9C2.99859 9 1.48595 7.15431 0.74223 5.92523ZM3 5.5C3 4.04167 4.25 3.16667 5.5 3.16667C6.75 3.16667 8 4.04167 8 5.5C8 6.95833 6.75 7.83333 5.5 7.83333C4.25 7.83333 3 6.95833 3 5.5Z" fill="#333333"/>
</svg>
