<svg width="11" height="11" viewBox="0 0 11 11" fill="none" xmlns="http://www.w3.org/2000/svg">
<path d="M6.09844 0.386675C5.98804 0.150374 5.75473 0 5.4985 0C5.24228 0 5.01106 0.150374 4.89857 0.386675L3.55913 3.22874L0.567782 3.68416C0.317809 3.72283 0.109498 3.90327 0.0324225 4.15032C-0.0446526 4.39736 0.0178406 4.67018 0.196988 4.85278L2.36759 7.06757L1.85514 10.1975C1.81348 10.4553 1.91764 10.7174 2.12387 10.8699C2.33009 11.0224 2.60298 11.0417 2.82796 10.9193L5.50059 9.44777L8.17322 10.9193C8.39819 11.0417 8.67108 11.0245 8.87731 10.8699C9.08354 10.7152 9.18769 10.4553 9.14603 10.1975L8.6315 7.06757L10.8021 4.85278C10.9813 4.67018 11.0458 4.39736 10.9667 4.15032C10.8875 3.90327 10.6813 3.72283 10.4313 3.68416L7.43788 3.22874L6.09844 0.386675Z" fill="#333333"/>
</svg>
