<svg width="11" height="11" viewBox="0 0 11 11" fill="none" xmlns="http://www.w3.org/2000/svg">
<g clip-path="url(#clip0_1250_714)">
<path d="M1.9693 3.03061L4.43934 5.50065L1.96999 7.97C1.6771 8.26289 1.6771 8.73777 1.96999 9.03066C2.26291 9.32323 2.73786 9.32345 3.03065 9.03066L5.5 6.56131L7.96935 9.03066C8.26214 9.32345 8.73709 9.32323 9.03001 9.03066C9.3229 8.73777 9.3229 8.26289 9.03001 7.97L6.56066 5.50065L9.0307 3.03061C9.32344 2.73782 9.32326 2.26285 9.0307 1.96995C8.73782 1.67707 8.26294 1.67711 7.97004 1.96995L5.5 4.43999L3.02996 1.96995C2.73706 1.67711 2.26218 1.67707 1.9693 1.96995C1.67674 2.26285 1.67656 2.73782 1.9693 3.03061Z" fill="#333333"/>
</g>
<defs>
<clipPath id="clip0_1250_714">
<rect width="11" height="11" fill="white"/>
</clipPath>
</defs>
</svg>
